<?xml version="1.0" encoding="UTF-8"?>
<svg id="Capa_1" xmlns="http://www.w3.org/2000/svg" version="1.1" viewBox="0 0 200.7 48.4">
  <!-- Generator: Adobe Illustrator 29.8.1, SVG Export Plug-In . SVG Version: 2.1.1 Build 2)  -->
  <defs>
    <style>
      .st0 {
        fill: #fff;
      }

      .st1 {
        fill: #feca5c;
      }
    </style>
  </defs>
  <path class="st0" d="M16.1,8.5c-2.1,0-2.8.7-2.8,2.9v2.1h6.3v5.7h-6.3v19H4.2v-19H0v-5.4l4.2-.2v-3.3c0-4.6,2.2-7.9,8.7-7.9s6.2.1,8.6.6l-.8,5.6h-4.5Z"/>
  <path class="st0" d="M30.4,2.4c1.7,0,2.6.9,2.6,2.7v2.6c0,1.8-.8,2.6-2.6,2.6h-3.9c-1.7,0-2.6-.8-2.6-2.6v-2.6c0-1.8.9-2.7,2.6-2.7h3.9ZM23.9,38.2V13.5h9v24.7h-9Z"/>
  <path class="st0" d="M46.9,28.2c.4,2.8,1.7,3.6,4.9,3.6s5.8-.1,9.7-.6l.8,5.5c-3.2,1.6-7.5,2.1-11.5,2.1-9.9,0-13.5-4.1-13.5-12.8s3.7-13.2,13.4-13.2,12.3,3,12.3,8.8c0,4.5-2.2,6.7-8.7,6.7h-7.4ZM51.7,23.6c2.1,0,2.5-.6,2.5-2.2s-.9-2.4-3.4-2.4c-3,0-4,.6-4.2,4.6h5.1Z"/>
  <path class="st0" d="M73.5,27.8c-5.1-1.4-6.3-3.9-6.3-7.8s2.8-7.2,11-7.2c3.8,0,9,.4,12.1,1l-.5,5.5c-3.3,0-6.6,0-9.6,0s-4.2,0-4.2,1,.7,1,3,1.6l6,1.6c4.3,1.2,6.4,3,6.4,7.3,0,6.2-3.4,7.9-11.7,7.9s-6.9,0-12-.9l.5-5.5c1.5,0,5.3,0,8.7,0s5.7-.1,5.7-1.3-.8-1-3.3-1.7l-5.8-1.6Z"/>
  <path class="st0" d="M109,29.6c0,1.6.6,2.1,2.3,2.1h2.9l1,6c-2,.8-5.7,1.1-7.8,1.1-4.7,0-7.5-2.6-7.5-7v-12.7h-4.3v-5.4l4.2-.2v-6.7h9.1v6.7h6.4v5.7h-6.4v10.4Z"/>
  <path class="st0" d="M120.9,14.1c3.7-.7,9.9-1.2,13.5-1.2,6.7,0,10.3,2.3,10.3,9.6v15.8h-7.2l-.8-3.6c-1.7,2.1-4.5,4.3-8.8,4.3s-8.3-2.4-8.3-7.1v-2.5c0-3.9,3-6.3,7.9-6.3h8.2v-.6c0-2.1-.8-2.8-3.4-2.8s-6.5,0-10.6.3l-.8-5.9ZM128.5,30.5c0,1.3.7,2,2.4,2s3.2-.6,4.8-1.7v-3.1h-5.2c-1.5,0-2.1.8-2.1,1.9v.8Z"/>
  <path class="st0" d="M162.3,29.6c0,1.6.6,2.1,2.3,2.1h2.9l1,6c-2,.8-5.7,1.1-7.8,1.1-4.7,0-7.5-2.6-7.5-7v-12.7h-4.3v-5.4l4.2-.2v-6.7h9.1v6.7h6.4v5.7h-6.4v10.4Z"/>
  <path class="st0" d="M192.4,38c-1.6,5.2-5.9,11.7-15.2,10.1l-.6-5c3.9-.9,6.1-2.3,7.4-4.9h-1.6c-1.4,0-2.5-.8-2.9-2.1l-7.6-22.6h6.5c1.8,0,3.5,1.3,3.9,3l2.9,11.7c.3,1.4.5,2.8.7,4.2h.5c.4-1.4.7-3.1,1-4.2l2.9-11.7c.4-1.8,2.1-3,3.9-3h6.5l-8.3,24.5Z"/>
  <path class="st1" d="M195.1,8.8c-4.9,0-8.8,4-8.8,8.8,0-4.9-4-8.8-8.8-8.8,4.9,0,8.8-4,8.8-8.8,0,4.9,4,8.8,8.8,8.8Z"/>
</svg>